<svg width="567" height="271" viewBox="0 0 567 271" fill="none" xmlns="http://www.w3.org/2000/svg">
<path d="M102.847 270.582H67.9061C61.9587 270.582 57.399 268.599 54.227 264.634C51.0551 260.669 50.0143 255.663 51.1046 249.617L62.7021 183.303C63.7925 177.158 66.6175 172.152 71.1772 168.286C75.7368 164.321 80.9904 162.339 86.9378 162.339H121.879C127.826 162.339 132.386 164.321 135.558 168.286C138.73 172.251 139.771 177.257 138.68 183.303L135.261 202.632H110.281L112.809 188.953C113.106 186.971 112.313 185.98 110.43 185.98H90.0602C88.1768 185.98 87.0865 186.971 86.7891 188.953L76.9759 243.967C76.6785 245.949 77.4715 246.941 79.3549 246.941H99.7247C101.608 246.941 102.698 245.949 102.996 243.967L105.523 230.288H130.503L127.083 249.617C125.992 255.663 123.167 260.719 118.608 264.783C114.048 268.649 108.795 270.582 102.847 270.582Z" fill="white"/>
<path d="M194.677 248.279H164.493L155.126 269.987H128.512L179.659 162.933H208.802L222.629 269.987H196.609L194.677 248.279ZM192.595 224.638L189.473 190.44L174.753 224.638H192.595Z" fill="white"/>
<path d="M294.382 196.982L295.868 188.656C296.265 186.872 295.522 185.98 293.638 185.98H274.309C272.426 185.98 271.335 186.872 271.038 188.656L269.254 199.361C268.956 200.848 269.749 201.79 271.633 202.186L297.653 207.836C311.134 210.612 316.883 217.749 314.9 229.247L311.183 249.617C310.093 255.663 307.268 260.719 302.708 264.783C298.148 268.649 292.895 270.582 286.947 270.582H252.304C246.356 270.582 241.797 268.599 238.625 264.634C235.453 260.669 234.412 255.663 235.502 249.617L238.03 234.897H262.117L260.481 244.264C260.184 246.048 261.027 246.941 263.009 246.941H283.825C285.708 246.941 286.799 246.048 287.096 244.264L289.029 232.667C289.326 231.279 288.533 230.387 286.65 229.99L260.63 224.192C247.248 221.218 241.549 214.081 243.531 202.781L246.951 183.303C247.942 177.257 250.718 172.251 255.277 168.286C259.837 164.321 265.14 162.339 271.187 162.339H304.046C309.994 162.339 314.553 164.321 317.725 168.286C320.996 172.251 322.087 177.257 320.996 183.303L318.617 196.982H294.382Z" fill="white"/>
<path d="M324.019 269.987L342.753 162.933H367.732L348.998 269.987H324.019Z" fill="white"/>
<path d="M448.401 162.933H471.893L453.159 269.987H427.436L405.282 203.822L393.685 269.987H370.193L388.927 162.933H414.798L436.804 229.247L448.401 162.933Z" fill="white"/>
<path d="M530.65 270.582H493.924C487.977 270.582 483.417 268.599 480.245 264.634C477.073 260.669 476.032 255.663 477.123 249.617L488.72 183.303C489.811 177.158 492.636 172.152 497.195 168.286C501.755 164.321 507.009 162.339 512.956 162.339H549.681C555.728 162.339 560.287 164.321 563.36 168.286C566.532 172.152 567.573 177.158 566.483 183.303L554.885 249.617C553.795 255.663 550.97 260.719 546.41 264.783C541.95 268.649 536.696 270.582 530.65 270.582ZM512.807 188.953L502.994 243.967C502.697 245.949 503.49 246.941 505.373 246.941H527.676C529.46 246.941 530.501 245.949 530.798 243.967L540.611 188.953C540.909 186.971 540.165 185.98 538.381 185.98H516.078C514.195 185.98 513.105 186.971 512.807 188.953Z" fill="white"/>
<path d="M59.4823 55.6681L60.9692 47.3418C61.3657 45.5576 60.6223 44.6654 58.7389 44.6654H39.4098C37.5265 44.6654 36.4361 45.5576 36.1387 47.3418L34.3545 58.0471C34.0572 59.534 34.8501 60.4756 36.7335 60.8721L62.7534 66.5222C76.2342 69.2976 81.9834 76.4345 80.0009 87.9329L76.2838 108.303C75.1934 114.349 72.3684 119.405 67.8087 123.469C63.249 127.334 57.9955 129.267 52.0481 129.267H17.4044C11.457 129.267 6.89731 127.285 3.72536 123.32C0.553402 119.355 -0.487395 114.349 0.602964 108.303L3.13061 93.5829H27.2176L25.5821 102.95C25.2847 104.734 26.1273 105.626 28.1097 105.626H48.9257C50.809 105.626 51.8994 104.734 52.1968 102.95L54.1297 91.3526C54.427 89.9649 53.6341 89.0728 51.7507 88.6763L25.7308 82.8776C12.3491 79.9039 6.6495 72.767 8.63197 61.4669L12.0517 41.9891C13.043 35.9426 15.8184 30.9368 20.3781 26.9719C24.9378 23.0069 30.2409 21.0245 36.2874 21.0245H69.1469C75.0943 21.0245 79.654 23.0069 82.8259 26.9719C86.097 30.9368 87.1874 35.9426 86.097 41.9891L83.718 55.6681H59.4823Z" fill="url(#paint0_linear_43_8)"/>
<path d="M107.854 21.6192H163.165C169.112 21.6192 173.672 23.6017 176.844 27.5666C180.016 31.5316 181.106 36.5373 180.115 42.5838L175.06 71.2801C174.068 77.4258 171.243 82.4811 166.585 86.446C161.926 90.3118 156.672 92.2447 150.824 92.2447H120.492L114.099 128.673H89.1195L107.854 21.6192ZM124.655 68.6038H147.702C149.585 68.6038 150.675 67.6125 150.973 65.6301L154.095 48.2339C154.392 46.2514 153.599 45.2602 151.716 45.2602H128.67L124.655 68.6038Z" fill="url(#paint1_linear_43_8)"/>
<path d="M198.895 21.6192H223.874L209.303 105.032H250.786L246.623 128.673H180.16L198.895 21.6192Z" fill="url(#paint2_linear_43_8)"/>
<path d="M260.601 128.673L279.336 21.6192H304.315L285.58 128.673H260.601Z" fill="url(#paint3_linear_43_8)"/>
<path d="M390.931 44.9628H365.06L350.34 128.673H325.361L340.081 44.9628H314.209L318.224 21.6192H394.945L390.931 44.9628Z" fill="url(#paint4_linear_43_8)"/>
<path d="M434.032 80.765C425.284 76.3313 414.859 74.414 400 73.5752C400 73.3355 400 73.2157 400 72.976C400 72.7364 400 72.6166 400 72.3769C414.859 71.5381 425.164 69.7407 434.032 65.1871C447.452 58.3569 458.357 47.4524 465.187 34.0315C469.621 25.284 471.538 14.8588 472.377 -6.43215e-06C472.617 -6.4112e-06 472.736 -6.40072e-06 472.976 -6.37977e-06C473.216 -6.35882e-06 473.336 -6.34834e-06 473.575 -6.32739e-06C474.414 14.8588 476.211 25.1642 480.765 34.0315C487.595 47.4524 498.5 58.3569 511.921 65.1872C520.668 69.6208 531.093 71.5381 545.952 72.3769C545.952 72.6166 545.952 72.7364 545.952 72.9761C545.952 73.2157 545.952 73.3355 545.952 73.5752C531.093 74.414 520.788 76.2115 511.921 80.765C498.5 87.5952 487.595 98.4997 480.765 111.921C476.331 120.668 474.414 131.093 473.575 145.952C473.336 145.952 473.216 145.952 472.976 145.952C472.736 145.952 472.617 145.952 472.377 145.952C471.538 131.093 469.621 120.788 465.187 111.921C458.357 98.4997 447.452 87.5952 434.032 80.765Z" fill="url(#paint5_linear_43_8)"/>
<defs>
<linearGradient id="paint0_linear_43_8" x1="78.5972" y1="43.7277" x2="515.65" y2="98.4671" gradientUnits="userSpaceOnUse">
<stop stop-color="#AA1327"/>
<stop offset="1" stop-color="#FF465E"/>
</linearGradient>
<linearGradient id="paint1_linear_43_8" x1="78.5972" y1="43.7277" x2="515.65" y2="98.4671" gradientUnits="userSpaceOnUse">
<stop stop-color="#AA1327"/>
<stop offset="1" stop-color="#FF465E"/>
</linearGradient>
<linearGradient id="paint2_linear_43_8" x1="78.5972" y1="43.7277" x2="515.65" y2="98.4671" gradientUnits="userSpaceOnUse">
<stop stop-color="#AA1327"/>
<stop offset="1" stop-color="#FF465E"/>
</linearGradient>
<linearGradient id="paint3_linear_43_8" x1="78.5972" y1="43.7277" x2="515.65" y2="98.4671" gradientUnits="userSpaceOnUse">
<stop stop-color="#AA1327"/>
<stop offset="1" stop-color="#FF465E"/>
</linearGradient>
<linearGradient id="paint4_linear_43_8" x1="78.5972" y1="43.7277" x2="515.65" y2="98.4671" gradientUnits="userSpaceOnUse">
<stop stop-color="#AA1327"/>
<stop offset="1" stop-color="#FF465E"/>
</linearGradient>
<linearGradient id="paint5_linear_43_8" x1="470.541" y1="-7.06743" x2="341.336" y2="112.824" gradientUnits="userSpaceOnUse">
<stop stop-color="#B0FF09"/>
<stop offset="1" stop-color="#05B8F1"/>
</linearGradient>
</defs>
</svg>
