<svg xmlns="http://www.w3.org/2000/svg" width="36" height="36" viewBox="0 0 36 36" fill="none">
<path d="M8.39409 19.9212C6.23646 18.8276 3.66503 18.3547 2.22817e-06 18.1478C2.23334e-06 18.0887 2.23592e-06 18.0591 2.24109e-06 18C2.24625e-06 17.9409 2.24884e-06 17.9113 2.25401e-06 17.8522C3.66503 17.6453 6.2069 17.202 8.39409 16.0788C11.7044 14.3941 14.3941 11.7044 16.0788 8.39409C17.1724 6.23645 17.6453 3.66502 17.8522 -1.58653e-06C17.9113 -1.58136e-06 17.9409 -1.57878e-06 18 -1.57361e-06C18.0591 -1.56844e-06 18.0887 -1.56586e-06 18.1478 -1.56069e-06C18.3547 3.66502 18.798 6.2069 19.9212 8.39409C21.6059 11.7044 24.2956 14.3941 27.6059 16.0788C29.7635 17.1724 32.335 17.6453 36 17.8522C36 17.9113 36 17.9409 36 18C36 18.0591 36 18.0887 36 18.1478C32.335 18.3547 29.7931 18.798 27.6059 19.9212C24.2956 21.6059 21.6059 24.2956 19.9212 27.6059C18.8276 29.7635 18.3547 32.335 18.1478 36C18.0887 36 18.0591 36 18 36C17.9409 36 17.9113 36 17.8522 36C17.6453 32.335 17.1724 29.7931 16.0788 27.6059C14.3941 24.2956 11.7044 21.6059 8.39409 19.9212Z" fill="url(#paint0_linear_73_1047)"/>
<defs>
<linearGradient id="paint0_linear_73_1047" x1="28.3655" y1="18.0059" x2="7.00213" y2="10.2593" gradientUnits="userSpaceOnUse">
<stop stop-color="#AA1327"/>
<stop offset="1" stop-color="#FF465E"/>
</linearGradient>
</defs>
</svg>