<svg xmlns="http://www.w3.org/2000/svg" width="36" height="37" viewBox="0 0 36 37" fill="none">
<path d="M8.39409 20.0704C6.23646 18.9768 3.66503 18.5038 2.22817e-06 18.297C2.23334e-06 18.2378 2.23592e-06 18.2083 2.24109e-06 18.1492C2.24625e-06 18.0901 2.24884e-06 18.0605 2.25401e-06 18.0014C3.66503 17.7945 6.2069 17.3511 8.39409 16.228C11.7044 14.5433 14.3941 11.8536 16.0788 8.54326C17.1724 6.38562 17.6453 3.81419 17.8522 0.149168C17.9113 0.149168 17.9409 0.149168 18 0.149168C18.0591 0.149168 18.0887 0.149168 18.1478 0.149168C18.3547 3.81419 18.798 6.35607 19.9212 8.54326C21.6059 11.8536 24.2956 14.5433 27.6059 16.228C29.7635 17.3216 32.335 17.7945 36 18.0014C36 18.0605 36 18.0901 36 18.1492C36 18.2083 36 18.2378 36 18.297C32.335 18.5039 29.7931 18.9472 27.6059 20.0704C24.2956 21.7551 21.6059 24.4447 19.9212 27.7551C18.8276 29.9127 18.3547 32.4841 18.1478 36.1492C18.0887 36.1492 18.0591 36.1492 18 36.1492C17.9409 36.1492 17.9113 36.1492 17.8522 36.1492C17.6453 32.4841 17.1724 29.9423 16.0788 27.7551C14.3941 24.4447 11.7044 21.7551 8.39409 20.0704Z" fill="url(#paint0_linear_97_1704)" fill-opacity="0.16"/>
<defs>
<linearGradient id="paint0_linear_97_1704" x1="24.7944" y1="39.2992" x2="-16.1364" y2="9.03375" gradientUnits="userSpaceOnUse">
<stop stop-color="#A4E8C3"/>
<stop offset="1" stop-color="#A852FF"/>
</linearGradient>
</defs>
</svg>