<svg xmlns="http://www.w3.org/2000/svg" width="26" height="29" viewBox="0 0 26 29" fill="none">
  <g filter="url(#filter0_d_73_1136)">
    <path d="M20 5H18V3H8V5H6C4.9 5 4 5.9 4 7V8C4 10.55 5.92 12.63 8.39 12.94C9.02 14.44 10.37 15.57 12 15.9V19H8V21H18V19H14V15.9C15.63 15.57 16.98 14.44 17.61 12.94C20.08 12.63 22 10.55 22 8V7C22 5.9 21.1 5 20 5ZM6 8V7H8V10.82C6.84 10.4 6 9.3 6 8ZM13 14C11.35 14 10 12.65 10 11V5H16V11C16 12.65 14.65 14 13 14ZM20 8C20 9.3 19.16 10.4 18 10.82V7H20V8Z" fill="url(#paint0_diamond_73_1136)"/>
  </g>
  <defs>
    <filter id="filter0_d_73_1136" x="-3" y="0" width="32" height="32" filterUnits="userSpaceOnUse" color-interpolation-filters="sRGB">
      <feFlood flood-opacity="0" result="BackgroundImageFix"/>
      <feColorMatrix in="SourceAlpha" type="matrix" values="0 0 0 0 0 0 0 0 0 0 0 0 0 0 0 0 0 0 127 0" result="hardAlpha"/>
      <feOffset dy="4"/>
      <feGaussianBlur stdDeviation="2"/>
      <feComposite in2="hardAlpha" operator="out"/>
      <feColorMatrix type="matrix" values="0 0 0 0 0 0 0 0 0 0 0 0 0 0 0 0 0 0 0.25 0"/>
      <feBlend mode="normal" in2="BackgroundImageFix" result="effect1_dropShadow_73_1136"/>
      <feBlend mode="normal" in="SourceGraphic" in2="effect1_dropShadow_73_1136" result="shape"/>
    </filter>
    <radialGradient id="paint0_diamond_73_1136" cx="0" cy="0" r="1" gradientUnits="userSpaceOnUse" gradientTransform="translate(5.20088 0.560906) rotate(48.0276) scale(26.582 22.5063)">
      <stop stop-color="#FFE2A4"/>
      <stop offset="0.631329" stop-color="#FFB81F"/>
      <stop offset="1" stop-color="#FFE2A4"/>
    </radialGradient>
  </defs>
</svg>