<svg xmlns="http://www.w3.org/2000/svg" width="27" height="27" viewBox="0 0 27 27" fill="none">
<path d="M14.6606 3.60348C9.15965 3.14524 4.33317 7.23871 3.87494 12.7397C3.4167 18.2406 7.49937 23.0762 13.0003 23.5344C18.5112 23.9935 23.3477 19.9009 23.8059 14.3999C24.2641 8.89899 20.1715 4.06255 14.6606 3.60348ZM13.1763 21.5422C8.77156 21.1753 5.50111 17.3104 5.86803 12.9057C6.23496 8.50094 10.0998 5.23049 14.5045 5.59741C18.9093 5.96433 22.1797 9.82917 21.8128 14.2339C21.4459 18.6387 17.581 21.9091 13.1763 21.5422ZM17.4114 12.8638C18.2385 12.9327 18.9618 12.3206 19.0307 11.4935C19.0996 10.6664 18.4875 9.94305 17.6604 9.87415C16.8333 9.80525 16.11 10.4173 16.0411 11.2445C15.9722 12.0716 16.5842 12.7949 17.4114 12.8638ZM10.4355 12.2827C11.2626 12.3516 11.986 11.7395 12.0549 10.9124C12.1238 10.0853 11.5117 9.36195 10.6846 9.29305C9.85742 9.22415 9.13412 9.83622 9.06521 10.6634C8.99631 11.4905 9.60838 12.2138 10.4355 12.2827ZM13.3838 19.0508C15.7058 19.2442 17.8002 17.9536 18.7668 15.9871L8.58203 15.1387C9.20992 17.2381 11.0619 18.8574 13.3838 19.0508Z" fill="url(#paint0_linear_73_1117)"/>
<defs>
<linearGradient id="paint0_linear_73_1117" x1="15.0835" y1="2.6669" x2="31.3637" y2="20.5089" gradientUnits="userSpaceOnUse">
<stop stop-color="#B0FF09"/>
<stop offset="1" stop-color="#05B8F1"/>
</linearGradient>
</defs>
</svg>