<svg xmlns="http://www.w3.org/2000/svg" width="26" height="26" viewBox="0 0 26 26" fill="none">
<path d="M21.4448 7.62203L21.3246 5.34521C21.2666 4.24674 20.3203 3.39546 19.2219 3.45348L5.24136 4.19192C4.1329 4.25047 3.29161 5.19616 3.34963 6.29463L4.08807 20.2751C4.14609 21.3736 5.08232 22.2254 6.19078 22.1669L20.1713 21.4284C21.2698 21.3704 22.121 20.4242 22.063 19.3257L21.9428 17.0489C22.5135 16.6683 22.8897 16.0175 22.8506 15.2785L22.5342 9.28689C22.4951 8.54792 22.0525 7.94042 21.4448 7.62203ZM20.5369 9.39238L20.8534 15.384L13.8632 15.7532L13.5467 9.7616L20.5369 9.39238ZM6.08529 20.1696L5.34685 6.18913L19.3274 5.4507L19.4329 7.44791L13.4412 7.76439C12.3427 7.82241 11.4915 8.76862 11.5495 9.86709L11.866 15.8587C11.924 16.9572 12.8702 17.8085 13.9687 17.7505L19.9603 17.434L20.0658 19.4312L6.08529 20.1696Z" fill="url(#paint0_linear_73_1120)"/>
<path d="M16.7799 14.0971C17.6071 14.0534 18.2424 13.3473 18.1987 12.5201C18.155 11.6928 17.4489 11.0576 16.6216 11.1013C15.7944 11.145 15.1591 11.851 15.2028 12.6783C15.2465 13.5056 15.9526 14.1408 16.7799 14.0971Z" fill="url(#paint1_linear_73_1120)"/>
<defs>
<linearGradient id="paint0_linear_73_1120" x1="13.0015" y1="2.90921" x2="29.7804" y2="17.6926" gradientUnits="userSpaceOnUse">
<stop stop-color="#B0FF09"/>
<stop offset="1" stop-color="#05B8F1"/>
</linearGradient>
<linearGradient id="paint1_linear_73_1120" x1="13.0015" y1="2.90921" x2="29.7804" y2="17.6926" gradientUnits="userSpaceOnUse">
<stop stop-color="#B0FF09"/>
<stop offset="1" stop-color="#05B8F1"/>
</linearGradient>
</defs>
</svg>