<svg width="24" height="24" viewBox="0 0 24 24" fill="none" xmlns="http://www.w3.org/2000/svg">
<g id="people_alt">
<g id="Vector">
<path fill-rule="evenodd" clip-rule="evenodd" d="M16.67 13.13C18.04 14.06 19 15.32 19 17V20H23V17C23 14.82 19.43 13.53 16.67 13.13Z" fill="url(#paint0_linear_97_2044)"/>
<path d="M9 12C11.2091 12 13 10.2091 13 8C13 5.79086 11.2091 4 9 4C6.79086 4 5 5.79086 5 8C5 10.2091 6.79086 12 9 12Z" fill="url(#paint1_linear_97_2044)"/>
<path fill-rule="evenodd" clip-rule="evenodd" d="M15 12C17.21 12 19 10.21 19 8C19 5.79 17.21 4 15 4C14.53 4 14.09 4.1 13.67 4.24C14.5 5.27 15 6.58 15 8C15 9.42 14.5 10.73 13.67 11.76C14.09 11.9 14.53 12 15 12Z" fill="url(#paint2_linear_97_2044)"/>
<path fill-rule="evenodd" clip-rule="evenodd" d="M9 13C6.33 13 1 14.34 1 17L1 20H17V17C17 14.34 11.67 13 9 13Z" fill="url(#paint3_linear_97_2044)"/>
</g>
</g>
<defs>
<linearGradient id="paint0_linear_97_2044" x1="12.367" y1="3.22523" x2="26.1594" y2="20.8228" gradientUnits="userSpaceOnUse">
<stop stop-color="#B0FF09"/>
<stop offset="1" stop-color="#05B8F1"/>
</linearGradient>
<linearGradient id="paint1_linear_97_2044" x1="12.367" y1="3.22523" x2="26.1594" y2="20.8228" gradientUnits="userSpaceOnUse">
<stop stop-color="#B0FF09"/>
<stop offset="1" stop-color="#05B8F1"/>
</linearGradient>
<linearGradient id="paint2_linear_97_2044" x1="12.367" y1="3.22523" x2="26.1594" y2="20.8228" gradientUnits="userSpaceOnUse">
<stop stop-color="#B0FF09"/>
<stop offset="1" stop-color="#05B8F1"/>
</linearGradient>
<linearGradient id="paint3_linear_97_2044" x1="12.367" y1="3.22523" x2="26.1594" y2="20.8228" gradientUnits="userSpaceOnUse">
<stop stop-color="#B0FF09"/>
<stop offset="1" stop-color="#05B8F1"/>
</linearGradient>
</defs>
</svg>
