<svg xmlns="http://www.w3.org/2000/svg" width="60" height="60" viewBox="0 0 60 60" fill="none">
<rect width="60" height="60" rx="12" fill="url(#paint0_linear_14_1997)"/>
<path d="M41.5574 24.7203C42.6893 23.9264 43.6404 22.9348 44.4159 21.7937V21.792C43.3813 22.2405 42.2789 22.5378 41.1296 22.6822C42.312 21.9845 43.2144 20.8881 43.6387 19.5665C42.5363 20.2161 41.3191 20.675 40.022 20.931C38.9753 19.8312 37.4834 19.1489 35.856 19.1489C32.6984 19.1489 30.1563 21.682 30.1563 24.7873C30.1563 25.2341 30.1946 25.6638 30.2884 26.0728C25.5468 25.8442 21.3512 23.5981 18.5327 20.1766C18.0406 21.0204 17.752 21.9862 17.752 23.0259C17.752 24.9781 18.7692 26.7086 20.2854 27.7105C19.369 27.6933 18.4701 27.4304 17.7085 27.0162V27.0781C17.7085 29.8174 19.6855 32.0926 22.278 32.6168C21.8137 32.7422 21.3077 32.8024 20.7826 32.8024C20.4175 32.8024 20.0489 32.7818 19.7029 32.7061C20.4418 34.9385 22.5388 36.5796 25.0322 36.6329C23.0917 38.1331 20.6279 39.0371 17.9606 39.0371C17.4929 39.0371 17.0443 39.0165 16.5957 38.9597C19.1221 40.57 22.1163 41.4894 25.3451 41.4894C35.4091 41.4894 41.9694 33.1908 41.5574 24.7203Z" fill="white"/>
<defs>
<linearGradient id="paint0_linear_14_1997" x1="3.59446" y1="-3.09873" x2="61.086" y2="-0.644029" gradientUnits="userSpaceOnUse">
<stop stop-color="#1A251F"/>
<stop offset="1" stop-color="#1B1227"/>
</linearGradient>
</defs>
</svg>